<?xml version="1.0" standalone="no"?>
<!DOCTYPE svg PUBLIC "-//W3C//DTD SVG 1.1//EN" "http://www.w3.org/Graphics/SVG/1.1/DTD/svg11.dtd" >
<svg xmlns="http://www.w3.org/2000/svg">
<metadata></metadata>
<defs>
<font id="pfhallregular" horiz-adv-x="1705" >
<font-face units-per-em="2048" ascent="1536" descent="-512" />
<missing-glyph horiz-adv-x="1024" />
<glyph horiz-adv-x="2048" />
<glyph horiz-adv-x="2048" />
<glyph unicode="&#xd;" horiz-adv-x="1024" />
<glyph unicode=" "  horiz-adv-x="1024" />
<glyph unicode="&#x09;" horiz-adv-x="1024" />
<glyph unicode="&#xa0;" horiz-adv-x="1024" />
<glyph unicode="!" horiz-adv-x="282" d="M0 0v158h164v-158h-164zM0 236v1200h164v-1200h-164z" />
<glyph unicode="'" horiz-adv-x="256" d="M0 1253v199h164v-199h-164z" />
<glyph unicode="(" horiz-adv-x="378" d="M0 190v1057q0 63 31 107q14 23 32.5 37t34.5 22q35 16 60.5 19.5t31.5 3.5h105v-170h-102h-3q-23 0 -22 -19v-1054q0 -16 5 -19.5t17 -3.5h105v-170h-105h-2q-61 0 -106 33q-23 14 -37 31.5t-25 35.5q-16 35 -18 60.5t-2 29.5z" />
<glyph unicode=")" horiz-adv-x="397" d="M102 0v170h103h2q23 0 22 18v1055q0 16 -5 19.5t-17 3.5h-105v170h105h2q61 0 106 -33q23 -14 37.5 -31.5t24.5 -36.5q16 -35 18 -60.5t2 -29.5v-1057q0 -63 -30 -106q-14 -23 -33 -37t-35 -22q-35 -16 -60.5 -19.5t-31.5 -3.5h-105z" />
<glyph unicode="+" />
<glyph unicode="," horiz-adv-x="225" d="M0 -2v141h141v-141v-88l-75 35v53h-66z" />
<glyph unicode="-" />
<glyph unicode="." horiz-adv-x="206" d="M0 0v141h141v-141h-141z" />
<glyph unicode="/" horiz-adv-x="841" d="M4 0l598 1434h180l-594 -1434h-184z" />
<glyph unicode="0" horiz-adv-x="923" d="M0 188v1055q0 37 14.5 71t40 59.5t60.5 42t75 16.5h316q33 0 65.5 -13.5t60 -39t45 -60.5t17.5 -76v-1055q-2 -41 -17 -81.5t-63 -75.5q-47 -31 -106 -31h-2h-316q-41 0 -85 17.5t-72 64.5q-33 45 -33 106zM166 176q0 -16 16 -16h283l-299 848v-832zM236 1272l290 -828 v811q0 16 -16 17h-274z" />
<glyph unicode="1" horiz-adv-x="561" d="M2 1307l234 127h90v-1434h-168v1200l-76 -41z" />
<glyph unicode="2" horiz-adv-x="901" d="M0 0v326l528 632v285v8q0 18 -18 19h-324q-6 0 -12 -5t-6 -14v-90h-168v82q0 4 1 20.5t7 39.5q6 20 21.5 43.5t37 43t47 32t54.5 12.5h360q74 0 121 -54.5t47 -136.5v-315v-31l-528 -633v-104h444v-160h-612z" />
<glyph unicode="3" horiz-adv-x="919" d="M0 164v115h119h35v-101q0 -16 16 -16h332q16 0 16 16v176q0 16 -16 17h-193v176h193q16 0 16 16v684q0 8 -4 15.5t-12 7.5h-328q-8 0 -12 -7.5t-4 -15.5v-86h-39h-119v72q0 39 10 74.5t29.5 63.5t49.5 45.5t69 17.5h360q39 0 69.5 -18.5t52.5 -47.5t33 -64.5t9 -68.5 v-666q0 -31 -8 -60.5t-23 -51.5l-6 -6q11 -15 17 -25q16 -31 19 -52.5t3 -25.5v-57v-127q-2 -72 -53 -118t-113 -46h-360q-35 0 -65 13.5t-51.5 35t-32.5 51t-9 64.5z" />
<glyph unicode="4" horiz-adv-x="911" d="M0 373v262l344 799h186l-356 -834v-55h238v313h172v-313h114v-172h-114v-373h-172v373h-412z" />
<glyph unicode="5" horiz-adv-x="882" d="M0 162v119h162v-103q0 -16 18 -16h330q16 0 16 16v176q0 18 -16 19h-510v612v217v51v4v179h160h375v-166h-375v-723h24h2h308q31 0 60.5 -8.5t51.5 -22.5q42 -26 58 -63q16 -35 18 -55.5t2 -22.5q2 -33 2 -70v-69.5t-2 -73.5q-4 -78 -49 -120t-109 -42h-364q-8 0 -34 8 t-54.5 26.5t-51 49.5t-22.5 78z" />
<glyph unicode="6" horiz-adv-x="858" d="M0 168v813v217v51q0 37 18.5 70t46 58.5t60.5 41t61 15.5h314q39 0 72.5 -17.5t58 -45.5t39 -64.5t14.5 -73.5v-72h-158v84q0 20 -20 25h-326q-14 0 -18 -23v-49v-653h26h306q78 0 133 -52.5t59 -125.5v-193q0 -39 -16.5 -71.5t-44 -56t-61.5 -36t-66 -10.5h-312 q-76 0 -130 48t-56 120zM162 176q0 -16 18 -16h330q6 0 12 5t6 11v176q0 8 -6 13.5t-12 5.5h-330q-18 0 -18 -19v-176z" />
<glyph unicode="7" horiz-adv-x="954" d="M-2 0l586 1165v105h-348v-109h-160v277h684v-160v-143l-565 -1135h-197z" />
<glyph unicode="8" horiz-adv-x="905" d="M0 569v678q0 78 43 130.5t119 56.5q74 -2 141 -2h217q80 0 118 -54.5t42 -126.5q0 -162 2 -299v-118.5v-111.5v-92v-61q-4 -72 -29 -114l-6 -6q13 -17 17 -23q16 -31 19 -52.5t3 -25.5v-59q0 -27 -1 -58.5t-1 -66.5q0 -37 -17.5 -67.5t-44 -52t-59.5 -33t-63 -11.5h-312 q-37 0 -70.5 12.5t-59 34t-41 51t-15.5 64.5v186q0 25 7 49.5t24 42.5l4 4q-4 8 -3 6.5t-3 4.5q-16 37 -22.5 72.5t-8.5 41.5zM156 178q0 -16 18 -16h330q16 0 16 16v176q0 16 -16 17h-330q-18 0 -18 -17v-176zM162 563q0 -18 18 -18h324q16 0 16 18v688q0 18 -16 19h-324 q-18 0 -18 -21v-686z" />
<glyph unicode="9" horiz-adv-x="907" d="M0 162v117h162v-35v-62q0 -6 4 -13t16 -7h322q16 0 16 16v58v120v17h-346q-37 0 -68.5 20.5t-55 50t-37 63.5t-13.5 60v670v33q8 72 49 118t109 46h362h-22q80 0 133 -46t53 -118q-2 -166 -2 -307v-392v-20v-23q-2 -14 -2 -59q-2 -39 -2 -111.5v-195.5q0 -80 -37 -120 t-121 -40h-141q-59 0 -120.5 -1t-100.5 1q-74 2 -116 45t-42 115zM160 563q0 -16 16 -16h328q16 0 16 16v688q0 6 -5 12.5t-11 6.5h-328q-8 0 -12 -6.5t-4 -12.5v-688z" />
<glyph unicode=":" horiz-adv-x="241" d="M0 264v142h141v-142h-141zM0 829v142h141v-142h-141z" />
<glyph unicode=";" horiz-adv-x="243" d="M-2 311h65v-55l78 -35v92v136h-4h-139v-138zM0 870v138h141v-138h-141z" />
<glyph unicode="?" horiz-adv-x="825" d="M0 1124v113q2 4 3 20.5t7 38.5q6 25 23.5 54.5t52.5 52.5q47 31 111 31h335h5q8 0 21 -2t32 -9q25 -6 54 -23t52 -52q31 -43 31 -111v-446v-224q0 -4 -1 -20.5t-9 -38.5q-6 -23 -22.5 -52.5t-51.5 -54.5q-47 -31 -111 -30h-73v-150h-152v318h2h223q10 2 17 2q2 2 2 6 q4 2 6 8t2 10v2v224v446q0 10 -1 12l-3 6l-2 2q-4 4 -10 6.5t-11 2.5h-2h-333q-8 0 -11.5 -2t-5.5 -2t-2 -2q-4 -4 -6 -11.5t-2 -11.5v-113h-170zM307 0v147h152v-147h-152zM516 1266h14h-14zM516 1266h14h-14z" />
<glyph unicode="A" horiz-adv-x="964" d="M0 0l240 1436h262l237 -1436h-168l-61 367h-279l-59 -367h-172zM262 537h219l-108 661z" />
<glyph unicode="B" horiz-adv-x="919" d="M0 0v1434h508q74 -2 130 -56.5t58 -134.5v-352v-273q0 -39 -8 -73.5t-29 -71.5q18 -25 26.5 -54.5t8.5 -60.5v-165q0 -37 -13 -71t-38 -61.5t-59.5 -44t-77.5 -16.5h-506zM170 170h336q16 0 20 10q2 4 2 10v177h-358v-197zM170 537h10h316h12q16 0 18 6t2 18v678 q0 27 -20 27h-338v-729z" />
<glyph unicode="C" horiz-adv-x="903" d="M0 190v78v181.5v235.5v243.5v203v113.5q0 70 27.5 109t63.5 56t65.5 21.5t33.5 4.5h316q74 0 111.5 -29t55 -63.5t20.5 -65.5t3 -33v-106h-168v102q0 25 -18 25h-320q-20 0 -20 -27v-1049q0 -20 20 -20h316q16 0 18 7t4 13v146v65h168v-211q0 -94 -56 -142t-134 -48h-316 q-94 4 -142 45t-48 145z" />
<glyph unicode="D" horiz-adv-x="923" d="M0 0v1434h399q123 0 184.5 -37t86 -86t25.5 -99.5t1 -74.5v-840q0 -117 -36.5 -178.5t-86 -88t-98.5 -28.5t-74 -2h-2h-313h-86zM170 170h229q57 4 92 36t35 85v846q0 39 -13 64.5t-32.5 38.5t-40 18.5t-34.5 5.5h-236v-1094z" />
<glyph unicode="E" horiz-adv-x="831" d="M0 0v1434h612v-168h-444v-729h313v-170h-313v-197h444v-170h-612z" />
<glyph unicode="F" horiz-adv-x="837" d="M0 0v1436h612v-170h-444v-729h315v-170h-315v-367h-168z" />
<glyph unicode="G" horiz-adv-x="927" d="M0 190v1053q0 76 28.5 115t63.5 55.5t64.5 18.5t33.5 2h316q78 0 134 -53.5t56 -137.5v-106h-168v104v-2q0 27 -20 27h-16h-183h-119q-6 0 -13 -5.5t-7 -19.5v-1051q0 -8 3 -14t17 -6h318q8 0 13 2t7 18v105v70h-233v170h401v-134v-106v-105q-4 -61 -16 -99t-35.5 -58.5 t-58.5 -26.5t-80 -6h-316h-2q-72 0 -110.5 27.5t-56 61.5t-19.5 63.5t-2 37.5z" />
<glyph unicode="H" horiz-adv-x="933" d="M0 0v1436h168v-901h362v901h170v-1436h-170v367h-362v-367h-168z" />
<glyph unicode="I" horiz-adv-x="493" d="M94 0v1434h170v-1434h-170z" />
<glyph unicode="J" horiz-adv-x="917" d="M0 190v105v106h170v-106v-105v-2q0 -18 20 -18h318q20 0 20 20v105v971h-233v168h399v-1139v-105q0 -4 -1 -20t-7 -39t-21.5 -50.5t-50.5 -49.5q-47 -31 -108 -31h-197h-119q-4 0 -20 1t-39 7t-50.5 22.5t-49.5 51.5q-31 43 -31 108z" />
<glyph unicode="K" horiz-adv-x="1017" d="M0 0v1436h170v-858l416 858h186l-463 -959l463 -477h-233l-369 379v-379h-170z" />
<glyph unicode="L" horiz-adv-x="808" d="M0 0v1436h168v-1266h395v-170h-563z" />
<glyph unicode="M" horiz-adv-x="1103" d="M0 0v1436h2h170l270 -992l267 992h170v-1436h-168v795l-189 -699h-162l-192 709v-805h-168z" />
<glyph unicode="N" horiz-adv-x="976" d="M0 0v1434h23h149l414 -1012v1012h166v-1434h-179l-405 999v-999h-168z" />
<glyph unicode="O" horiz-adv-x="925" d="M0 190v1055q0 86 55.5 138.5t134.5 52.5h318q68 0 105.5 -22.5t56 -54.5t23.5 -63.5t5 -50.5v-1055q-4 -68 -23.5 -105.5t-46 -55t-58 -22.5t-62.5 -7h-318q-68 2 -105.5 23.5t-56 51t-22.5 61.5t-6 54zM170 190q-2 -12 6 -16t14 -4h318q12 2 16 8t4 12v1049 q0 16 -5 21.5t-15 5.5h-318q-12 0 -16 -8.5t-4 -18.5v-1049z" />
<glyph unicode="P" horiz-adv-x="954" d="M0 0v1436h535h2q57 0 95 -22.5t60.5 -53.5t30.5 -64.5t8 -56.5v-676q-8 -66 -29.5 -104.5t-50 -59t-59.5 -26.5t-57 -6h-367v-367h-168zM168 535h367q18 0 23 12t5 18v674q0 18 -7 22.5t-24 4.5h-364v-731z" />
<glyph unicode="Q" horiz-adv-x="925" d="M0 190v1055q0 37 13.5 72t39 60.5t60 42t77.5 16.5h328q76 0 128 -52.5t52 -138.5v-1055q0 -4 -1 -19t-7 -38l96 -168v-2h-190l-29 45q-25 -8 -59 -8h-2h-316q-35 0 -68.5 14.5t-60 40t-44 60.5t-17.5 75zM168 190q0 -22 23 -22h2h278l-117 199h-59v168h154l79 -132v842 q0 20 -22 21h-316q-23 0 -22 -21v-1055z" />
<glyph unicode="R" horiz-adv-x="958" d="M0 0v1436h535h4q78 -2 135 -56.5t57 -140.5v-676q0 -39 -15.5 -74.5t-42 -62.5t-61 -43t-77.5 -16h-62l264 -367h-207l-264 367h-98v-367h-168zM168 535h367q16 0 22 10t6 20v674q0 16 -7 21.5t-19 5.5h-369v-731z" />
<glyph unicode="S" horiz-adv-x="919" d="M0 168v127h170v-105q0 -16 8 -18t12 -2h318q20 0 20 20v185q0 18 -20 18h-66h-237q-85 0 -145 45q-58 44 -58 118v5l-2 37v647q0 37 15.5 72t40 60.5t54 41t60.5 15.5h358q39 0 71 -16.5t53.5 -43t33.5 -60.5q10 -29 10 -59v-10v-104h-168v98q0 27 -20 27h-318 q-10 0 -15 -5.5t-5 -23.5v-154v-8v-22v-469q0 -23 20 -23h369q31 0 57.5 -15.5t46 -41t29.5 -58t10 -67.5v-2v-209q-2 -41 -21 -71.5t-45 -52t-53.5 -33t-45.5 -11.5h-371q-78 0 -122 47t-44 121z" />
<glyph unicode="T" horiz-adv-x="952" d="M0 1268v168h727v-168h-276v-1268h-168v1268h-283z" />
<glyph unicode="U" horiz-adv-x="944" d="M0 168v1266h166v-1231q0 -14 2 -23.5t18 -9.5h346q16 0 18.5 9t2.5 18v-7v1244h166v-1237v-29q0 -63 -25.5 -97t-56.5 -51q-37 -18 -84 -20h-360h-25q-29 0 -58.5 7t-54 25.5t-40 51.5t-15.5 84z" />
<glyph unicode="V" horiz-adv-x="944" d="M0 629v805h168v-772l199 -492l196 492v772h168v-805l-252 -629h-225z" />
<glyph unicode="W" horiz-adv-x="1210" d="M2 1436h170l141 -901l148 901h172l151 -904l140 904h172l-224 -1436h-172l-153 922l-154 -922h-170z" />
<glyph unicode="X" horiz-adv-x="972" d="M0 0l299 719l-295 715h182l207 -496l205 496h182l-297 -715l297 -719h-182l-207 498l-209 -498h-182z" />
<glyph unicode="Y" horiz-adv-x="940" d="M0 608v826h168v-756l178 -176h43l176 176v756h168v-826l-274 -274v-334h-183v334h-2z" />
<glyph unicode="Z" horiz-adv-x="874" d="M0 0v317l530 947h-446v170h616v-211l-532 -949v-106h479v-168h-647zM84 1264z" />
<glyph unicode="[" horiz-adv-x="542" d="M0 0v1436h401v-168h-233v-1100h233v-168h-401z" />
<glyph unicode="\" horiz-adv-x="874" d="M4 1434h180l598 -1434h-184z" />
<glyph unicode="]" horiz-adv-x="503" d="M0 0v168h233v1100h-233v168h401v-1436h-401z" />
<glyph unicode="a" horiz-adv-x="964" d="M0 0l240 1436h262l237 -1436h-168l-61 367h-279l-59 -367h-172zM262 537h219l-108 661z" />
<glyph unicode="b" horiz-adv-x="919" d="M0 0v1434h508q74 -2 130 -56.5t58 -134.5v-352v-273q0 -39 -8 -73.5t-29 -71.5q18 -25 26.5 -54.5t8.5 -60.5v-165q0 -37 -13 -71t-38 -61.5t-59.5 -44t-77.5 -16.5h-506zM170 170h336q16 0 20 10q2 4 2 10v177h-358v-197zM170 537h10h316h12q16 0 18 6t2 18v678 q0 27 -20 27h-338v-729z" />
<glyph unicode="c" horiz-adv-x="903" d="M0 190v78v181.5v235.5v243.5v203v113.5q0 70 27.5 109t63.5 56t65.5 21.5t33.5 4.5h316q74 0 111.5 -29t55 -63.5t20.5 -65.5t3 -33v-106h-168v102q0 25 -18 25h-320q-20 0 -20 -27v-1049q0 -20 20 -20h316q16 0 18 7t4 13v146v65h168v-211q0 -94 -56 -142t-134 -48h-316 q-94 4 -142 45t-48 145z" />
<glyph unicode="d" horiz-adv-x="923" d="M0 0v1434h399q123 0 184.5 -37t86 -86t25.5 -99.5t1 -74.5v-840q0 -117 -36.5 -178.5t-86 -88t-98.5 -28.5t-74 -2h-2h-313h-86zM170 170h229q57 4 92 36t35 85v846q0 39 -13 64.5t-32.5 38.5t-40 18.5t-34.5 5.5h-236v-1094z" />
<glyph unicode="e" horiz-adv-x="831" d="M0 0v1434h612v-168h-444v-729h313v-170h-313v-197h444v-170h-612z" />
<glyph unicode="f" horiz-adv-x="837" d="M0 0v1436h612v-170h-444v-729h315v-170h-315v-367h-168z" />
<glyph unicode="g" horiz-adv-x="927" d="M0 190v1053q0 76 28.5 115t63.5 55.5t64.5 18.5t33.5 2h316q78 0 134 -53.5t56 -137.5v-106h-168v104v-2q0 27 -20 27h-16h-183h-119q-6 0 -13 -5.5t-7 -19.5v-1051q0 -8 3 -14t17 -6h318q8 0 13 2t7 18v105v70h-233v170h401v-134v-106v-105q-4 -61 -16 -99t-35.5 -58.5 t-58.5 -26.5t-80 -6h-316h-2q-72 0 -110.5 27.5t-56 61.5t-19.5 63.5t-2 37.5z" />
<glyph unicode="h" horiz-adv-x="933" d="M0 0v1436h168v-901h362v901h170v-1436h-170v367h-362v-367h-168z" />
<glyph unicode="i" horiz-adv-x="493" d="M94 0v1434h170v-1434h-170z" />
<glyph unicode="j" horiz-adv-x="917" d="M0 190v105v106h170v-106v-105v-2q0 -18 20 -18h318q20 0 20 20v105v971h-233v168h399v-1139v-105q0 -4 -1 -20t-7 -39t-21.5 -50.5t-50.5 -49.5q-47 -31 -108 -31h-197h-119q-4 0 -20 1t-39 7t-50.5 22.5t-49.5 51.5q-31 43 -31 108z" />
<glyph unicode="k" horiz-adv-x="1017" d="M0 0v1436h170v-858l416 858h186l-463 -959l463 -477h-233l-369 379v-379h-170z" />
<glyph unicode="l" horiz-adv-x="808" d="M0 0v1436h168v-1266h395v-170h-563z" />
<glyph unicode="m" horiz-adv-x="1103" d="M0 0v1436h2h170l270 -992l267 992h170v-1436h-168v795l-189 -699h-162l-192 709v-805h-168z" />
<glyph unicode="n" horiz-adv-x="976" d="M0 0v1434h23h149l414 -1012v1012h166v-1434h-179l-405 999v-999h-168z" />
<glyph unicode="o" horiz-adv-x="925" d="M0 190v1055q0 86 55.5 138.5t134.5 52.5h318q68 0 105.5 -22.5t56 -54.5t23.5 -63.5t5 -50.5v-1055q-4 -68 -23.5 -105.5t-46 -55t-58 -22.5t-62.5 -7h-318q-68 2 -105.5 23.5t-56 51t-22.5 61.5t-6 54zM170 190q-2 -12 6 -16t14 -4h318q12 2 16 8t4 12v1049 q0 16 -5 21.5t-15 5.5h-318q-12 0 -16 -8.5t-4 -18.5v-1049z" />
<glyph unicode="p" horiz-adv-x="954" d="M0 0v1436h535h2q57 0 95 -22.5t60.5 -53.5t30.5 -64.5t8 -56.5v-676q-8 -66 -29.5 -104.5t-50 -59t-59.5 -26.5t-57 -6h-367v-367h-168zM168 535h367q18 0 23 12t5 18v674q0 18 -7 22.5t-24 4.5h-364v-731z" />
<glyph unicode="q" horiz-adv-x="925" d="M0 190v1055q0 37 13.5 72t39 60.5t60 42t77.5 16.5h328q76 0 128 -52.5t52 -138.5v-1055q0 -4 -1 -19t-7 -38l96 -168v-2h-190l-29 45q-25 -8 -59 -8h-2h-316q-35 0 -68.5 14.5t-60 40t-44 60.5t-17.5 75zM168 190q0 -22 23 -22h2h278l-117 199h-59v168h154l79 -132v842 q0 20 -22 21h-316q-23 0 -22 -21v-1055z" />
<glyph unicode="r" horiz-adv-x="958" d="M0 0v1436h535h4q78 -2 135 -56.5t57 -140.5v-676q0 -39 -15.5 -74.5t-42 -62.5t-61 -43t-77.5 -16h-62l264 -367h-207l-264 367h-98v-367h-168zM168 535h367q16 0 22 10t6 20v674q0 16 -7 21.5t-19 5.5h-369v-731z" />
<glyph unicode="s" horiz-adv-x="919" d="M0 168v127h170v-105q0 -16 8 -18t12 -2h318q20 0 20 20v185q0 18 -20 18h-66h-237q-85 0 -145 45q-58 44 -58 118v5l-2 37v647q0 37 15.5 72t40 60.5t54 41t60.5 15.5h358q39 0 71 -16.5t53.5 -43t33.5 -60.5q10 -29 10 -59v-10v-104h-168v98q0 27 -20 27h-318 q-10 0 -15 -5.5t-5 -23.5v-154v-8v-22v-469q0 -23 20 -23h369q31 0 57.5 -15.5t46 -41t29.5 -58t10 -67.5v-2v-209q-2 -41 -21 -71.5t-45 -52t-53.5 -33t-45.5 -11.5h-371q-78 0 -122 47t-44 121z" />
<glyph unicode="t" horiz-adv-x="952" d="M0 1268v168h727v-168h-276v-1268h-168v1268h-283z" />
<glyph unicode="u" horiz-adv-x="944" d="M0 168v1266h166v-1231q0 -14 2 -23.5t18 -9.5h346q16 0 18.5 9t2.5 18v-7v1244h166v-1237v-29q0 -63 -25.5 -97t-56.5 -51q-37 -18 -84 -20h-360h-25q-29 0 -58.5 7t-54 25.5t-40 51.5t-15.5 84z" />
<glyph unicode="v" horiz-adv-x="944" d="M0 629v805h168v-772l199 -492l196 492v772h168v-805l-252 -629h-225z" />
<glyph unicode="w" horiz-adv-x="1210" d="M2 1436h170l141 -901l148 901h172l151 -904l140 904h172l-224 -1436h-172l-153 922l-154 -922h-170z" />
<glyph unicode="x" horiz-adv-x="972" d="M0 0l299 719l-295 715h182l207 -496l205 496h182l-297 -715l297 -719h-182l-207 498l-209 -498h-182z" />
<glyph unicode="y" horiz-adv-x="940" d="M0 608v826h168v-756l178 -176h43l176 176v756h168v-826l-274 -274v-334h-183v334h-2z" />
<glyph unicode="z" horiz-adv-x="874" d="M0 0v317l530 947h-446v170h616v-211l-532 -949v-106h479v-168h-647zM84 1264z" />
<glyph unicode="&#xa2;" />
<glyph unicode="&#xad;" />
<glyph unicode="&#xb6;" horiz-adv-x="821" d="M2 1180q0 49 18.5 93t49 77.5t72.5 55t91 26.5v2v2h494v-2v-1434h-168v1266h-158v-1266h-168v928q-49 4 -91 25.5t-72.5 55t-49 77.5t-18.5 94z" />
<glyph unicode="&#xc6;" horiz-adv-x="1288" d="M0 0l522 1434v2h162h12h492v-2h4v-168h-444v-729h313v-170h-313v-197h444v-170h-479h-43h-88v367h-273l-123 -367h-186zM362 537h220v649z" />
<glyph unicode="&#xe6;" horiz-adv-x="1288" d="M0 0l522 1434v2h162h12h492v-2h4v-168h-444v-729h313v-170h-313v-197h444v-170h-479h-43h-88v367h-273l-123 -367h-186zM362 537h220v649z" />
<glyph unicode="&#x2000;" horiz-adv-x="768" />
<glyph unicode="&#x2001;" horiz-adv-x="1536" />
<glyph unicode="&#x2002;" horiz-adv-x="768" />
<glyph unicode="&#x2003;" horiz-adv-x="1536" />
<glyph unicode="&#x2004;" horiz-adv-x="512" />
<glyph unicode="&#x2005;" horiz-adv-x="384" />
<glyph unicode="&#x2006;" horiz-adv-x="256" />
<glyph unicode="&#x2007;" horiz-adv-x="256" />
<glyph unicode="&#x2008;" horiz-adv-x="192" />
<glyph unicode="&#x2009;" horiz-adv-x="307" />
<glyph unicode="&#x200a;" horiz-adv-x="85" />
<glyph unicode="&#x2010;" />
<glyph unicode="&#x2011;" />
<glyph unicode="&#x2012;" />
<glyph unicode="&#x2013;" />
<glyph unicode="&#x2014;" />
<glyph unicode="&#x2018;" />
<glyph unicode="&#x2019;" horiz-adv-x="182" d="M0 1395v141h141v-141v-88l-75 34v54h-66z" />
<glyph unicode="&#x201c;" horiz-adv-x="378" d="M0 1204v142v88l76 -35v-53h65v-142h-141zM0 1204v142v88l76 -35v-53h65v-142h-141zM172 1204v142v88l76 -35v-53h65v-142h-141z" />
<glyph unicode="&#x201d;" horiz-adv-x="352" d="M37 1292v142h141v-142v-88l-76 35v53h-65zM209 1292l141 142v-142v-88l-76 35v53h-65v142h141v-142v-88l-76 35v53h-65z" />
<glyph unicode="&#x2022;" />
<glyph unicode="&#x202f;" horiz-adv-x="307" />
<glyph unicode="&#x205f;" horiz-adv-x="384" />
<glyph unicode="&#x2122;" horiz-adv-x="1775" d="M0 1268v168h727v-168h-276v-1268h-168v1268h-283zM811 0v1436h2h170l270 -992l267 992h170v-1436h-168v795l-189 -699h-162l-192 709v-805h-168z" />
<glyph unicode="&#x25fc;" horiz-adv-x="1433" d="M0 0v1434h1434v-1434h-1434z" />
<glyph unicode="&#xfb01;" horiz-adv-x="735" d="M0 375v160h117v591q0 104 49 177q25 35 54.5 58t58.5 40q39 18 73.5 25.5t55.5 9.5h131v-168h-113h-6q-4 0 -21 -4q-33 -4 -61 -23q-18 -12 -31 -31q-8 -12 -14 -31.5t-6 -52.5v-591h186h166v-535h-166v375h-186v-375h-170v375h-117zM473 604v176h166v-176h-166z" />
<glyph unicode="&#xfb02;" horiz-adv-x="821" d="M0 375v162h117v589q-2 53 12 97.5t37 79.5t51.5 57t56.5 37q41 23 77 29t57 8h108h23h143v-1237v-2q0 -6 2 -11l8 -12q2 0 5 -1t16 -1v-168h-2q-68 0 -113 31q-23 16 -36 34.5t-23 36.5q-16 35 -18.5 60.5t-4.5 32.5v1069h-90h-6q-4 0 -8 -1t-13 -1q-14 -4 -31.5 -8.5 t-31.5 -14.5q-16 -10 -31 -29q-10 -14 -16 -33.5t-6 -52.5v-589h190v-162h-190v-375h-166v375h-117z" />
</font>
</defs>
</svg>
